:SAMPLES-PER-SECOND 30
:FULLY-SPECIFIED
:DEGREES
1124
root  68.5203 39.3279 6.64727 -58.9377 84.1074 -64.2638
RightUpLeg  -11.6835 -0.925307 5.45838
RightLeg  17.0128 2.12816 -4.11168
RightFoot  14.9144 18.9929 -70.1226
RightToes  -6.98493e-010 0 -3.6325e-017
Spine  17.1533 0.523408 5.4419
Spine1  14.8767 1.41271 -0.425337
HEad  -40.9084 1.05363 -8.07162
LeftShoulder1  1.71649 -4.13944 -15.687
LeftArm  -41.8442 -71.6314 -6.77088
LeftForeArm  -9.15215 -10.7875 -3.12712
LeftHand  -0.0187077 6.63895 1.49403
RightShoulder  0.727975 3.91939 1.55852
RightArm  -35.7601 80.8985 10.8542
RightForeArm  -17.3704 -6.30214 2.39287
RightHand  -0.0361962 4.72395 -0.615812
LeftUpLeg  -18.8878 12.1653 4.67487
LeftLeg  13.2866 -3.77748 -0.979663
LeftFoot  4.25934 -0.610759 4.26678
LeftToes  7.91257e-010 -1.64976e-010 -3.02228e-011
1125
root  68.4331 39.373 6.60403 -55.3994 83.6208 -60.3115
RightUpLeg  -10.8802 0.947837 4.54321
RightLeg  20.5042 0.3353 -3.89366
RightFoot  12.1161 11.9655 -53.8559
RightToes  -6.98493e-010 0 -3.6325e-017
Spine  16.9151 0.307865 5.84876
Spine1  14.9096 1.24414 -0.17024
HEad  -39.8385 1.66899 -8.56638
LeftShoulder1  1.64229 -3.55308 -16.5544
LeftArm  -40.2294 -70.1339 -9.14545
LeftForeArm  -8.73021 -12.5881 -2.96261
LeftHand  -0.0224214 5.74591 2.08285
RightShoulder  0.781899 4.08181 2.12666
RightArm  -28.4684 79.7285 20.9253
RightForeArm  -12.4883 -3.39729 1.28282
RightHand  0.0635908 4.83937 0.439084
LeftUpLeg  -18.2169 12.4701 5.01213
LeftLeg  12.8118 -3.76584 -0.954538
LeftFoot  4.54336 -0.614715 4.20614
LeftToes  7.91257e-010 -1.64976e-010 -3.02228e-011
1126
root  68.3504 39.3594 6.63544 -51.2523 83.6385 -55.4685
RightUpLeg  -9.15533 3.36063 3.34242
RightLeg  22.7698 -2.09156 -3.51065
RightFoot  11.1711 11.503 -50.7734
RightToes  -6.98493e-010 0 -3.6325e-017
Spine  16.6831 0.0786336 5.96694
Spine1  14.5052 1.2765 -0.730568
HEad  -38.4698 1.80812 -8.49218
LeftShoulder1  1.62044 -3.35193 -16.9537
LeftArm  -37.3231 -67.4412 -13.545
LeftForeArm  -8.46063 -15.2321 -3.07456
LeftHand  -0.0313115 5.08689 2.42748
RightShoulder  0.868206 3.947 3.66963
RightArm  -19.1703 77.8085 32.0528
RightForeArm  -10.0353 1.55617 1.2057
RightHand  -0.189536 5.02157 -2.4017
LeftUpLeg  -17.4282 12.6259 4.96145
LeftLeg  12.6856 -3.59845 -0.957657
LeftFoot  4.49029 -0.557563 3.81256
LeftToes  7.91257e-010 -1.64976e-010 -3.02228e-011
1127
root  68.2359 39.3389 6.71401 -45.7003 83.8315 -48.9234
RightUpLeg  -6.44787 4.0862 0.19653
RightLeg  24.5841 -1.92423 -1.36095
RightFoot  2.29499 2.38088 -21.5063
RightToes  -6.98493e-010 0 -3.6325e-017
Spine  16.6511 -0.0345949 4.405
Spine1  13.2923 0.726201 0.263766
HEad  -36.4715 3.22872 -9.16982
LeftShoulder1  1.54201 -2.7875 -17.9241
LeftArm  -36.1423 -62.996 -18.6536
LeftForeArm  -5.29056 -18.7226 -3.61735
LeftHand  -0.0434202 4.58373 3.0131
RightShoulder  0.957386 4.37998 4.40179
RightArm  -11.9844 73.4026 42.6344
RightForeArm  -6.24937 8.08759 1.15087
RightHand  -0.430355 4.93149 -5.15012
LeftUpLeg  -16.3612 12.6386 4.78892
LeftLeg  12.5052 -3.16741 -1.00123
LeftFoot  4.49211 -0.523658 3.5691
LeftToes  7.91257e-010 -1.64976e-010 -3.02228e-011
1128
root  68.1015 39.2962 6.83607 -36.2465 83.9957 -39.3526
RightUpLeg  -5.24507 3.45586 -1.75213
RightLeg  26.1401 -0.464492 -0.458234
RightFoot  -0.53026 1.37821 -14.8413
RightToes  -6.98493e-010 0 -3.6325e-017
Spine  15.6103 0.0618381 0.131352
Spine1  10.9329 -1.11361 4.75372
HEad  -32.6585 6.5523 -10.4702
LeftShoulder1  1.39902 -1.89507 -19.3887
LeftArm  -36.0709 -54.892 -24.8506
LeftForeArm  -1.15198 -22.7949 -4.76079
LeftHand  -0.0787969 3.76534 4.36666
RightShoulder  1.20508 7.39542 2.9315
RightArm  -10.6061 65.5241 53.2028
RightForeArm  4.035 16.3349 0.919648
RightHand  -0.436866 4.98857 -5.18301
LeftUpLeg  -16.3085 12.5645 4.2402
LeftLeg  12.378 -2.44656 -0.934846
LeftFoot  4.73063 -0.467985 3.10262
LeftToes  7.91257e-010 -1.64976e-010 -3.02228e-011
